<svg id="Group_3867" data-name="Group 3867" xmlns="http://www.w3.org/2000/svg" width="108.061" height="35.348" viewBox="0 0 108.061 35.348">
  <path id="Path_4493" data-name="Path 4493" d="M970.944,640.387a4.777,4.777,0,0,1-4.776,4.777H867.66a4.778,4.778,0,0,1-4.777-4.777V614.593a4.777,4.777,0,0,1,4.777-4.777h98.508a4.776,4.776,0,0,1,4.776,4.777Z" transform="translate(-862.883 -609.816)" fill="#fff"/>
  <g id="Group_3863" data-name="Group 3863" transform="translate(7.249 5.495)">
    <path id="Path_4494" data-name="Path 4494" d="M918.809,676.044A17.51,17.51,0,0,1,917.227,679c-1.028,1.565-2.476,3.513-4.271,3.529-1.6.015-2-1.038-4.169-1.026s-2.616,1.045-4.212,1.03c-1.795-.017-3.167-1.776-4.2-3.34-2.874-4.375-3.174-9.509-1.4-12.238a6.36,6.36,0,0,1,5.115-3.075c1.9,0,3.1,1.043,4.671,1.043,1.526,0,2.456-1.045,4.655-1.045a6.208,6.208,0,0,1,4.679,2.47A5.354,5.354,0,0,0,918.809,676.044Z" transform="translate(-897.879 -658.174)" fill="#001c1d"/>
    <g id="Group_3862" data-name="Group 3862" transform="translate(10.06)">
      <path id="Path_4495" data-name="Path 4495" d="M950.261,640.3a5.339,5.339,0,0,0,1.186-3.954,5.768,5.768,0,0,0-3.724,2,4.956,4.956,0,0,0-1.217,3.857A4.869,4.869,0,0,0,950.261,640.3Z" transform="translate(-946.449 -636.346)" fill="#001c1d"/>
    </g>
  </g>
  <g id="Group_3866" data-name="Group 3866" transform="translate(32.818 5.547)">
    <g id="Group_3864" data-name="Group 3864" transform="translate(0 8.468)">
      <path id="Path_4496" data-name="Path 4496" d="M1025.44,678.411l-4.117,12.118h1.885l1.229-3.721h3.986l1.264,3.721h1.938l-4.135-12.118Zm.977,1.992c.139.541.289,1.1.482,1.71l1.11,3.213h-3.157l1.094-3.234C1026.111,681.568,1026.269,681,1026.417,680.4Z" transform="translate(-1021.323 -678.218)" fill="#001c1d"/>
      <path id="Path_4497" data-name="Path 4497" d="M1078.92,693.577a3.431,3.431,0,0,0-2.915,1.4l-.073-1.205h-1.677l.01.154c.049.751.07,1.578.07,2.764v9.34h1.833v-4.359a3.219,3.219,0,0,0,2.506,1.077,3.779,3.779,0,0,0,2.778-1.181,5.01,5.01,0,0,0,1.227-3.526,4.876,4.876,0,0,0-1.065-3.22A3.488,3.488,0,0,0,1078.92,693.577Zm-.457,1.518c1.634,0,2.366,1.514,2.366,3.014,0,1.935-.933,3.137-2.435,3.137a2.222,2.222,0,0,1-2.16-1.7,2.337,2.337,0,0,1-.065-.593v-1.474a2.752,2.752,0,0,1,.058-.453c.009-.05.019-.1.026-.149A2.321,2.321,0,0,1,1078.463,695.095Z" transform="translate(-1063.291 -690.243)" fill="#001c1d"/>
      <path id="Path_4498" data-name="Path 4498" d="M1124.5,693.577a3.433,3.433,0,0,0-2.915,1.4l-.073-1.205h-1.677l.009.154c.05.752.071,1.578.071,2.764v9.34h1.833v-4.359a3.218,3.218,0,0,0,2.505,1.077,3.784,3.784,0,0,0,2.779-1.181,5.014,5.014,0,0,0,1.226-3.526,4.877,4.877,0,0,0-1.066-3.22A3.487,3.487,0,0,0,1124.5,693.577Zm-.456,1.518c1.633,0,2.365,1.514,2.365,3.014,0,1.935-.934,3.137-2.435,3.137a2.223,2.223,0,0,1-2.16-1.7,2.34,2.34,0,0,1-.065-.593v-1.474a2.71,2.71,0,0,1,.058-.454c.009-.049.018-.1.026-.147A2.32,2.32,0,0,1,1124.045,695.095Z" transform="translate(-1099.432 -690.243)" fill="#001c1d"/>
      <path id="Path_4499" data-name="Path 4499" d="M1182.751,682.807c-1.711-.663-2.259-1.184-2.259-2.147,0-.811.644-1.628,2.084-1.628a4.164,4.164,0,0,1,2.152.54l.155.1.517-1.53-.1-.06a5.312,5.312,0,0,0-2.67-.6c-2.338,0-3.971,1.38-3.971,3.356,0,1.593,1.022,2.707,3.218,3.505,1.556.582,2.135,1.177,2.135,2.2,0,1.156-.893,1.873-2.331,1.873a5.016,5.016,0,0,1-2.642-.749l-.159-.1-.492,1.565.09.06a6.277,6.277,0,0,0,3.1.8c3.151,0,4.269-1.921,4.269-3.567C1185.844,684.72,1184.949,683.673,1182.751,682.807Z" transform="translate(-1145.854 -677.479)" fill="#001c1d"/>
      <path id="Path_4500" data-name="Path 4500" d="M1218.4,684.429l-1.8.565v1.523h-1.317v1.465h1.317v4.488a3.434,3.434,0,0,0,.635,2.326,2.352,2.352,0,0,0,1.774.7,4.322,4.322,0,0,0,1.417-.219l.1-.036-.088-1.468-.176.054a2.768,2.768,0,0,1-.853.1c-.71,0-1.014-.45-1.014-1.5v-4.436h2.212v-1.465H1218.4Z" transform="translate(-1175.111 -682.99)" fill="#001c1d"/>
      <path id="Path_4501" data-name="Path 4501" d="M1246.261,693.577a4.318,4.318,0,0,0-4.356,4.655,4.183,4.183,0,0,0,4.216,4.515h.017a4.322,4.322,0,0,0,4.357-4.672,4.633,4.633,0,0,0-1.168-3.243A4.08,4.08,0,0,0,1246.261,693.577Zm-.053,1.447c1.649,0,2.4,1.608,2.4,3.1,0,1.838-1.025,3.172-2.435,3.172h-.018c-1.391,0-2.4-1.312-2.4-3.119C1243.755,696.609,1244.514,695.024,1246.208,695.024Z" transform="translate(-1196.215 -690.243)" fill="#001c1d"/>
      <path id="Path_4502" data-name="Path 4502" d="M1293.016,693.662l-.11-.028a1.761,1.761,0,0,0-.456-.057,2.615,2.615,0,0,0-2.3,1.476l-.054-1.283h-1.645l.011.154c.049.726.069,1.541.069,2.64l-.017,5.99h1.833v-4.673a4.719,4.719,0,0,1,.051-.711,2.026,2.026,0,0,1,1.929-1.848,4.682,4.682,0,0,1,.492.031l.2.02Z" transform="translate(-1233.122 -690.243)" fill="#001c1d"/>
      <path id="Path_4503" data-name="Path 4503" d="M1314.517,693.493c-2.441,0-4.145,1.95-4.145,4.742a4.1,4.1,0,0,0,4.321,4.427,7.034,7.034,0,0,0,2.9-.557l.11-.05-.352-1.366-.153.062a5.681,5.681,0,0,1-2.3.411,2.549,2.549,0,0,1-2.746-2.658l5.918.018.024-.117a4.082,4.082,0,0,0,.055-.765C1318.155,695.727,1317.2,693.493,1314.517,693.493Zm-.122,1.395a1.809,1.809,0,0,1,1.346.513,2.61,2.61,0,0,1,.631,1.707h-4.181A2.34,2.34,0,0,1,1314.4,694.888Z" transform="translate(-1250.502 -690.176)" fill="#001c1d"/>
    </g>
    <g id="Group_3865" data-name="Group 3865">
      <path id="Path_4504" data-name="Path 4504" d="M1021.323,637.991a13.354,13.354,0,0,1,1.759-.119,3.925,3.925,0,0,1,2.581.706,2.509,2.509,0,0,1,.907,2.067,2.9,2.9,0,0,1-.917,2.229,4.255,4.255,0,0,1-2.827.825,12.765,12.765,0,0,1-1.5-.068Zm.832,5.08a5.937,5.937,0,0,0,.832.034c1.758.008,2.713-.885,2.713-2.434.01-1.37-.841-2.212-2.581-2.212a5.233,5.233,0,0,0-.964.076Z" transform="translate(-1021.323 -637.608)" fill="#001c1d"/>
      <path id="Path_4505" data-name="Path 4505" d="M1052.5,649.736a2.067,2.067,0,0,1-2.194-2.118,2.124,2.124,0,0,1,2.269-2.187,2.051,2.051,0,0,1,2.2,2.111,2.132,2.132,0,0,1-2.269,2.2Zm.028-.562a1.465,1.465,0,0,0,1.39-1.608,1.4,1.4,0,1,0-1.4,1.608Z" transform="translate(-1044.303 -643.601)" fill="#001c1d"/>
      <path id="Path_4506" data-name="Path 4506" d="M1074.993,645.881l.615,2.085c.123.459.246.893.331,1.319h.028c.1-.417.255-.859.407-1.31l.747-2.094h.7l.709,2.059c.17.485.3.927.406,1.345h.028a11.392,11.392,0,0,1,.35-1.336l.652-2.068h.823L1079.314,650h-.757l-.7-1.965a13.553,13.553,0,0,1-.407-1.362h-.018a11.382,11.382,0,0,1-.416,1.37l-.737,1.957h-.756l-1.381-4.119Z" transform="translate(-1063.202 -643.958)" fill="#001c1d"/>
      <path id="Path_4507" data-name="Path 4507" d="M1110.108,646.638c0-.434-.01-.774-.038-1.115h.738l.047.672h.019a1.734,1.734,0,0,1,1.513-.766,1.566,1.566,0,0,1,1.617,1.753v2.459h-.832v-2.374c0-.664-.275-1.225-1.059-1.225a1.187,1.187,0,0,0-1.115.766,1.014,1.014,0,0,0-.057.349v2.484h-.832Z" transform="translate(-1091.688 -643.601)" fill="#001c1d"/>
      <path id="Path_4508" data-name="Path 4508" d="M1135.587,636.6h.832v6.041h-.832Z" transform="translate(-1111.92 -636.598)" fill="#001c1d"/>
      <path id="Path_4509" data-name="Path 4509" d="M1146.866,649.736a2.067,2.067,0,0,1-2.193-2.118,2.124,2.124,0,0,1,2.269-2.187,2.051,2.051,0,0,1,2.2,2.111,2.132,2.132,0,0,1-2.269,2.2Zm.028-.562a1.465,1.465,0,0,0,1.39-1.608,1.4,1.4,0,1,0-1.4,1.608Z" transform="translate(-1119.124 -643.601)" fill="#001c1d"/>
      <path id="Path_4510" data-name="Path 4510" d="M1173.182,648.655a6.216,6.216,0,0,0,.066.987h-.747l-.076-.519h-.028a1.759,1.759,0,0,1-1.4.612,1.247,1.247,0,0,1-1.4-1.183c0-1,.983-1.54,2.751-1.531v-.085c0-.34-.1-.961-1.04-.953a2.385,2.385,0,0,0-1.2.306l-.189-.5a3.219,3.219,0,0,1,1.513-.358,1.531,1.531,0,0,1,1.749,1.685Zm-.813-1.115c-.908-.017-1.938.128-1.938.927a.7.7,0,0,0,.775.715,1.153,1.153,0,0,0,1.125-.689.678.678,0,0,0,.038-.238Z" transform="translate(-1138.887 -643.601)" fill="#001c1d"/>
      <path id="Path_4511" data-name="Path 4511" d="M1196.021,636.6v4.978c0,.366.01.783.038,1.064h-.747l-.037-.715h-.019a1.712,1.712,0,0,1-1.551.808,1.964,1.964,0,0,1-1.967-2.093,2.053,2.053,0,0,1,2.052-2.212,1.574,1.574,0,0,1,1.381.621h.019V636.6Zm-.832,3.6a1.238,1.238,0,0,0-.038-.323,1.2,1.2,0,0,0-1.2-.859,1.409,1.409,0,0,0-1.371,1.583,1.366,1.366,0,0,0,1.352,1.531,1.238,1.238,0,0,0,1.22-.893,1.158,1.158,0,0,0,.038-.323Z" transform="translate(-1156.44 -636.598)" fill="#001c1d"/>
      <path id="Path_4512" data-name="Path 4512" d="M1229.355,649.736a2.067,2.067,0,0,1-2.194-2.118,2.125,2.125,0,0,1,2.269-2.187,2.051,2.051,0,0,1,2.2,2.111,2.132,2.132,0,0,1-2.269,2.2Zm.029-.562a1.465,1.465,0,0,0,1.39-1.608,1.4,1.4,0,1,0-1.4,1.608Z" transform="translate(-1184.526 -643.601)" fill="#001c1d"/>
      <path id="Path_4513" data-name="Path 4513" d="M1253.678,646.638c0-.434-.01-.774-.038-1.115h.737l.048.672h.019a1.733,1.733,0,0,1,1.512-.766,1.567,1.567,0,0,1,1.617,1.753v2.459h-.832v-2.374c0-.664-.274-1.225-1.059-1.225a1.188,1.188,0,0,0-1.116.766,1.014,1.014,0,0,0-.057.349v2.484h-.832Z" transform="translate(-1205.521 -643.601)" fill="#001c1d"/>
      <path id="Path_4514" data-name="Path 4514" d="M1287.847,641.118v.987h1.191v.57h-1.191V644.9c0,.51.161.8.624.8a1.726,1.726,0,0,0,.482-.051l.037.57a2.5,2.5,0,0,1-.737.1,1.261,1.261,0,0,1-.9-.315,1.5,1.5,0,0,1-.321-1.081v-2.247h-.709v-.57h.709v-.757Z" transform="translate(-1231.436 -640.182)" fill="#001c1d"/>
      <path id="Path_4515" data-name="Path 4515" d="M1303.947,636.6h.832v2.57h.019a1.412,1.412,0,0,1,.6-.527,1.755,1.755,0,0,1,.851-.213,1.565,1.565,0,0,1,1.6,1.761v2.451h-.832v-2.365c0-.672-.274-1.225-1.059-1.225a1.2,1.2,0,0,0-1.115.749.819.819,0,0,0-.057.358v2.484h-.832Z" transform="translate(-1245.407 -636.598)" fill="#001c1d"/>
      <path id="Path_4516" data-name="Path 4516" d="M1328.489,647.678a1.394,1.394,0,0,0,1.56,1.43,3.468,3.468,0,0,0,1.267-.2l.151.528a4.092,4.092,0,0,1-1.532.264,2.03,2.03,0,0,1-2.25-2.076,2.1,2.1,0,0,1,2.156-2.23,1.8,1.8,0,0,1,1.881,1.94,1.731,1.731,0,0,1-.028.357Zm2.431-.536a1.1,1.1,0,0,0-1.144-1.217,1.3,1.3,0,0,0-1.276,1.217Z" transform="translate(-1264.229 -643.568)" fill="#001c1d"/>
    </g>
  </g>
</svg>
