<svg id="Component_2_1" data-name="Component 2 – 1" xmlns="http://www.w3.org/2000/svg" xmlns:xlink="http://www.w3.org/1999/xlink" width="108.061" height="34.655" viewBox="0 0 108.061 34.655">
  <defs>
    <clipPath id="clip-path">
      <path id="Path_4468" data-name="Path 4468" d="M915.38,451.555,910.6,448.8l-9.214-5.32c-.512-.3-1.021-.116-1.021.5v21.676c0,.463.364.662.809.406l9.427-5.443,4.777-2.758,4.592-2.651c.539-.311.487-.738.033-.983S915.38,451.555,915.38,451.555Z" transform="translate(-900.367 -443.337)" fill="none"/>
    </clipPath>
    <linearGradient id="linear-gradient" x1="0.5" x2="0.5" y2="1" gradientUnits="objectBoundingBox">
      <stop offset="0" stop-color="#0067a2"/>
      <stop offset="0.403" stop-color="#3d91a8"/>
      <stop offset="0.805" stop-color="#74b7ae"/>
      <stop offset="1" stop-color="#8ac6b1"/>
    </linearGradient>
    <linearGradient id="linear-gradient-2" y1="0.5" x2="1" y2="0.5" gradientUnits="objectBoundingBox">
      <stop offset="0" stop-color="#50b09b"/>
      <stop offset="1" stop-color="#e9e486"/>
    </linearGradient>
    <linearGradient id="linear-gradient-3" x1="0.5" x2="0.5" y2="1" gradientUnits="objectBoundingBox">
      <stop offset="0" stop-color="#dc1b24"/>
      <stop offset="0.228" stop-color="#c1203b"/>
      <stop offset="0.748" stop-color="#8a2b6c"/>
      <stop offset="1" stop-color="#753080"/>
    </linearGradient>
    <linearGradient id="linear-gradient-4" x1="0.5" x2="0.5" y2="1" gradientUnits="objectBoundingBox">
      <stop offset="0" stop-color="#eb7165"/>
      <stop offset="0.003" stop-color="#eb7164"/>
      <stop offset="0.675" stop-color="#f9a85e"/>
      <stop offset="1" stop-color="#ffbe5c"/>
    </linearGradient>
  </defs>
  <path id="Path_4463" data-name="Path 4463" d="M970.944,439.335a4.731,4.731,0,0,1-4.776,4.684H867.66a4.731,4.731,0,0,1-4.777-4.684V414.047a4.731,4.731,0,0,1,4.777-4.683h98.508a4.731,4.731,0,0,1,4.776,4.683Z" transform="translate(-862.883 -409.364)" fill="#fff"/>
  <g id="Component_1_1" data-name="Component 1 – 1" transform="translate(11.764 4.981)">
    <g id="PLAY" transform="translate(0 0.055)">
      <g id="Group_3857" data-name="Group 3857" transform="translate(0 0)" clip-path="url(#clip-path)">
        <path id="Path_4464" data-name="Path 4464" d="M900.367,441.575v23.468L912.2,453.309Z" transform="translate(-900.367 -441.94)" fill="url(#linear-gradient)"/>
        <path id="Path_4465" data-name="Path 4465" d="M915.38,449.831l-4.777-2.758-10.236-5.91v.085L912.2,452.982Z" transform="translate(-900.367 -441.613)" fill="url(#linear-gradient-2)"/>
        <path id="Path_4466" data-name="Path 4466" d="M900.367,509.961v.085l10.236-5.91,4.777-2.758-3.178-3.151Z" transform="translate(-900.367 -486.858)" fill="url(#linear-gradient-3)"/>
        <path id="Path_4467" data-name="Path 4467" d="M960.679,483.01l-3.179,3.152,3.178,3.151,5.459-3.152Z" transform="translate(-945.667 -474.793)" fill="url(#linear-gradient-4)"/>
      </g>
    </g>
    <g id="Group_3858" data-name="Group 3858" transform="translate(71.327 6.198)">
      <path id="Path_4469" data-name="Path 4469" d="M1247.9,493.3a2.954,2.954,0,0,1-1.217-.246,2.3,2.3,0,0,1-.925-.756h-.075a9.152,9.152,0,0,1,.075,1.133v2.809h-1.033v-9.889h.841l.143.934h.05a2.4,2.4,0,0,1,.928-.81,2.823,2.823,0,0,1,1.214-.249,2.522,2.522,0,0,1,2.1.928,4.941,4.941,0,0,1-.012,5.216A2.529,2.529,0,0,1,1247.9,493.3Zm-.149-6.2a1.832,1.832,0,0,0-1.513.579,2.985,2.985,0,0,0-.48,1.844v.23a3.415,3.415,0,0,0,.48,2.058,1.824,1.824,0,0,0,1.538.619,1.6,1.6,0,0,0,1.386-.716,3.4,3.4,0,0,0,.5-1.974,3.27,3.27,0,0,0-.5-1.958A1.649,1.649,0,0,0,1247.755,487.1Z" transform="translate(-1244.729 -483.481)" fill="#001c1d"/>
      <path id="Path_4470" data-name="Path 4470" d="M1281.339,482.683h-1.034v-9.69h1.034Z" transform="translate(-1272.936 -472.993)" fill="#001c1d"/>
      <path id="Path_4471" data-name="Path 4471" d="M1295.967,493.219l-.206-.971h-.05a2.869,2.869,0,0,1-1.018.869,3.1,3.1,0,0,1-1.267.227,2.279,2.279,0,0,1-1.591-.523,1.906,1.906,0,0,1-.576-1.488q0-2.067,3.306-2.167l1.159-.037V488.7a1.728,1.728,0,0,0-.346-1.186,1.42,1.42,0,0,0-1.105-.383,4.5,4.5,0,0,0-1.93.523l-.318-.791a4.862,4.862,0,0,1,1.106-.43,4.783,4.783,0,0,1,1.2-.156,2.6,2.6,0,0,1,1.809.542,2.263,2.263,0,0,1,.588,1.738v4.658Zm-2.335-.728a2.1,2.1,0,0,0,1.516-.529,1.959,1.959,0,0,0,.551-1.482v-.616l-1.034.043a3.763,3.763,0,0,0-1.778.383,1.155,1.155,0,0,0-.545,1.056,1.063,1.063,0,0,0,.339.853A1.406,1.406,0,0,0,1293.632,492.491Z" transform="translate(-1281.621 -483.53)" fill="#001c1d"/>
      <path id="Path_4472" data-name="Path 4472" d="M1320.583,486.823h1.108l1.495,3.892a14.827,14.827,0,0,1,.611,1.924h.05q.081-.318.339-1.087t1.69-4.729h1.109l-2.933,7.771a3.878,3.878,0,0,1-1.018,1.635,2.165,2.165,0,0,1-1.429.482,4.164,4.164,0,0,1-.934-.106v-.828a3.607,3.607,0,0,0,.766.075,1.579,1.579,0,0,0,1.519-1.2l.38-.971Z" transform="translate(-1304.871 -483.958)" fill="#001c1d"/>
    </g>
    <g id="Group_3860" data-name="Group 3860" transform="translate(24.203 5.435)">
      <path id="Path_4473" data-name="Path 4473" d="M1147.229,487.917a2.325,2.325,0,0,1-.186,3.954,1,1,0,0,0-.4.7.783.783,0,0,0,.372.613l.514.4a2.485,2.485,0,0,1,1.2,2c0,1.342-1.3,2.7-3.754,2.7-2.07,0-3.069-.985-3.069-2.042a2.054,2.054,0,0,1,1.1-1.742,6.153,6.153,0,0,1,2.726-.657,1.494,1.494,0,0,1-.428-.97,1.289,1.289,0,0,1,.143-.557c-.157.015-.314.029-.457.029a2.257,2.257,0,0,1-2.369-2.241,2.568,2.568,0,0,1,.913-1.913,3.892,3.892,0,0,1,2.556-.785h2.94l-.914.514Zm-1.014,6.339a2.216,2.216,0,0,0-.328-.015,5.7,5.7,0,0,0-1.5.23,1.6,1.6,0,0,0-1.228,1.47c0,1.013.985,1.742,2.513,1.742,1.37,0,2.1-.658,2.1-1.543C1147.771,495.411,1147.3,495.027,1146.215,494.256Zm.414-2.713a1.444,1.444,0,0,0,.356-1.042c0-1.028-.614-2.626-1.8-2.626a1.334,1.334,0,0,0-1,.471,1.649,1.649,0,0,0-.314,1.056c0,.957.557,2.541,1.785,2.541A1.463,1.463,0,0,0,1146.629,491.543Z" transform="translate(-1116.078 -483.655)" fill="#001c1d"/>
      <path id="Path_4474" data-name="Path 4474" d="M1110.911,493.251a3.363,3.363,0,0,1-3.477-3.364,3.532,3.532,0,0,1,3.692-3.463,3.332,3.332,0,0,1,3.405,3.364A3.482,3.482,0,0,1,1110.911,493.251Zm1.781-1.154a2.578,2.578,0,0,0,.428-1.583c0-1.255-.6-3.649-2.366-3.649a1.986,1.986,0,0,0-1.283.486,2.157,2.157,0,0,0-.656,1.739c0,1.41.7,3.732,2.423,3.732A1.821,1.821,0,0,0,1112.693,492.1Z" transform="translate(-1088.748 -482.879)" fill="#001c1d"/>
      <path id="Path_4475" data-name="Path 4475" d="M1073.615,493.251a3.363,3.363,0,0,1-3.478-3.364,3.532,3.532,0,0,1,3.692-3.463,3.332,3.332,0,0,1,3.406,3.364A3.482,3.482,0,0,1,1073.615,493.251Zm1.782-1.154a2.582,2.582,0,0,0,.428-1.583c0-1.255-.6-3.649-2.366-3.649a1.986,1.986,0,0,0-1.282.486,2.156,2.156,0,0,0-.656,1.739c0,1.41.7,3.732,2.423,3.732A1.822,1.822,0,0,0,1075.4,492.1Z" transform="translate(-1059.176 -482.879)" fill="#001c1d"/>
      <path id="Path_4476" data-name="Path 4476" d="M1027.09,480.679l-2.049.473a15.188,15.188,0,0,1-2.364.243,5.091,5.091,0,0,1-5.459-5.187,5.416,5.416,0,0,1,5.789-5.358,8.255,8.255,0,0,1,2.192.3,5.59,5.59,0,0,1,1.892.888l-1.19,1.132-.5.114.358-.573a4.1,4.1,0,0,0-3.066-1.346,3.958,3.958,0,0,0-3.97,4.228,5.067,5.067,0,0,0,5.072,5.229,4.267,4.267,0,0,0,1.82-.359v-2.307l-2.163.115,1.146-.617h3.038l-.372.358a.334.334,0,0,0-.144.229c-.015.129-.028.545-.028.688Z" transform="translate(-1017.217 -470.53)" fill="#001c1d"/>
      <path id="Path_4477" data-name="Path 4477" d="M1177.826,479.044c-.473-.043-.572-.129-.572-.688v-8.11c0-.031,0-.063.008-.093.058-.5.2-.587.646-.846h-2.05l-1.075.516h1.1v8.847c0,.286-.057.33-.387.759h2.536l.53-.314C1178.314,479.087,1178.07,479.073,1177.826,479.044Z" transform="translate(-1142.146 -469.308)" fill="#001c1d"/>
      <path id="Path_4478" data-name="Path 4478" d="M1197.745,492.764c-.156.086-.313.186-.469.256a3.317,3.317,0,0,1-1.382.271,3.041,3.041,0,0,1-1.893-.555,3.683,3.683,0,0,1-1.451-3,3.225,3.225,0,0,1,3.259-3.287,2.765,2.765,0,0,1,1.466.4,2.355,2.355,0,0,1,.995,1.408l-3.343,1.353-1.1.085a3.16,3.16,0,0,0,2.931,2.859,3.677,3.677,0,0,0,1.736-.5Zm-1.337-4.241c.27-.1.412-.185.412-.384a1.412,1.412,0,0,0-1.409-1.224,1.752,1.752,0,0,0-1.636,1.978c0,.242.028.5.043.755Z" transform="translate(-1156.234 -482.896)" fill="#001c1d"/>
      <g id="Group_3859" data-name="Group 3859" transform="translate(42.459 3.55)">
        <path id="Path_4479" data-name="Path 4479" d="M1222.632,486.543v.939h-.114v-.939h-.311v-.1h.735v.1Z" transform="translate(-1222.207 -486.446)" fill="#001c1d"/>
        <path id="Path_4480" data-name="Path 4480" d="M1227.442,487.482v-.948h-.005l-.289.948h-.089l-.292-.948h0v.948h-.1v-1.036h.178l.264.838h0l.26-.838h.18v1.036Z" transform="translate(-1225.737 -486.446)" fill="#001c1d"/>
      </g>
    </g>
    <g id="Group_3861" data-name="Group 3861" transform="translate(24.228)">
      <path id="Path_4481" data-name="Path 4481" d="M1020.156,446.289h-.712a4.7,4.7,0,0,0-.2-.832h-1.028a4.3,4.3,0,0,0-.209.832h-.67q0-.087.52-1.424a11.183,11.183,0,0,0,.52-1.473h.841a12.33,12.33,0,0,0,.47,1.452A12.722,12.722,0,0,1,1020.156,446.289Zm-1.028-1.257a12.591,12.591,0,0,1-.38-1.241h-.035q0,.087-.394,1.241Z" transform="translate(-1017.335 -443.325)" fill="#001c1d"/>
      <path id="Path_4482" data-name="Path 4482" d="M1035.669,446.289h-.549a5.442,5.442,0,0,0-.612-.963,5.309,5.309,0,0,1-.73-1.257h-.036a7.831,7.831,0,0,1,.056.881q0,.549.031,1.339h-.547q.033-.689.034-1.515t-.034-1.382h.661a4.175,4.175,0,0,0,.549.941,5.536,5.536,0,0,1,.672,1.186h.033a8.485,8.485,0,0,1-.053-.89q0-.6-.031-1.237h.556q-.031.552-.031,1.382T1035.669,446.289Z" transform="translate(-1029.978 -443.325)" fill="#001c1d"/>
      <path id="Path_4483" data-name="Path 4483" d="M1051.009,444.69a1.641,1.641,0,0,1-.405,1.1,1.415,1.415,0,0,1-1.135.472q-.33,0-.908-.027.029-.672.029-1.515,0-.81-.029-1.382h.389c.064,0,.159,0,.285-.007s.208-.007.247-.007a1.5,1.5,0,0,1,1.165.4A1.385,1.385,0,0,1,1051.009,444.69Zm-.607.1a1.073,1.073,0,0,0-.249-.72.945.945,0,0,0-.761-.292,2.316,2.316,0,0,0-.262.02q.022.445.022.93,0,.532.022,1.055a1.478,1.478,0,0,0,.29.029.841.841,0,0,0,.708-.3A1.146,1.146,0,0,0,1050.4,444.785Z" transform="translate(-1042.093 -443.275)" fill="#001c1d"/>
      <path id="Path_4484" data-name="Path 4484" d="M1065.757,446.238h-.659a4.372,4.372,0,0,0-.4-.972.519.519,0,0,0-.445-.185l-.247,0q0,.572.02,1.155h-.619q.029-.672.029-1.515,0-.81-.029-1.382h.385q.067,0,.279-.007t.393-.007q1.021,0,1.021.7a.783.783,0,0,1-.583.772v.033a.7.7,0,0,1,.394.35A7.725,7.725,0,0,1,1065.757,446.238Zm-.834-2.047q0-.443-.57-.443a1.956,1.956,0,0,0-.369.031q.024.345.025.9.122,0,.207,0Q1064.923,444.683,1064.923,444.191Z" transform="translate(-1053.868 -443.275)" fill="#001c1d"/>
      <path id="Path_4485" data-name="Path 4485" d="M1079.291,444.532a1.6,1.6,0,0,1-.418,1.132,1.357,1.357,0,0,1-1.035.449,1.307,1.307,0,0,1-.984-.413,1.453,1.453,0,0,1-.4-1.049,1.6,1.6,0,0,1,.418-1.133,1.357,1.357,0,0,1,1.035-.449,1.309,1.309,0,0,1,.983.412A1.453,1.453,0,0,1,1079.291,444.532Zm-.614.064a1.148,1.148,0,0,0-.238-.754.734.734,0,0,0-.587-.289.679.679,0,0,0-.552.291,1.163,1.163,0,0,0-.227.737,1.146,1.146,0,0,0,.239.753.734.734,0,0,0,.586.29.678.678,0,0,0,.552-.293A1.164,1.164,0,0,0,1078.676,444.6Z" transform="translate(-1064.212 -443.07)" fill="#001c1d"/>
      <path id="Path_4486" data-name="Path 4486" d="M1093.8,446.289h-.63q.029-.689.029-1.515t-.029-1.382h.63q-.029.561-.029,1.382Q1093.767,445.613,1093.8,446.289Z" transform="translate(-1077.459 -443.325)" fill="#001c1d"/>
      <path id="Path_4487" data-name="Path 4487" d="M1102.408,444.69a1.641,1.641,0,0,1-.4,1.1,1.414,1.414,0,0,1-1.135.472q-.329,0-.908-.027.029-.672.029-1.515,0-.81-.029-1.382h.389c.064,0,.159,0,.285-.007s.208-.007.247-.007a1.5,1.5,0,0,1,1.165.4A1.385,1.385,0,0,1,1102.408,444.69Zm-.607.1a1.073,1.073,0,0,0-.249-.72.945.945,0,0,0-.761-.292,2.323,2.323,0,0,0-.263.02q.022.445.022.93,0,.532.022,1.055a1.478,1.478,0,0,0,.29.029.841.841,0,0,0,.708-.3A1.147,1.147,0,0,0,1101.8,444.785Z" transform="translate(-1082.846 -443.275)" fill="#001c1d"/>
      <path id="Path_4488" data-name="Path 4488" d="M1121.633,446.289h-.712a4.689,4.689,0,0,0-.2-.832h-1.028a4.32,4.32,0,0,0-.209.832h-.67q0-.087.52-1.424a11.169,11.169,0,0,0,.519-1.473h.841a12.309,12.309,0,0,0,.471,1.452A12.755,12.755,0,0,1,1121.633,446.289Zm-1.028-1.257a12.6,12.6,0,0,1-.381-1.241h-.036q0,.087-.394,1.241Z" transform="translate(-1097.792 -443.325)" fill="#001c1d"/>
      <path id="Path_4489" data-name="Path 4489" d="M1136.872,444.1a.867.867,0,0,1-.4.785,1.755,1.755,0,0,1-.969.254c-.07,0-.12,0-.149,0q0,.418.024,1.1h-.625q.029-.643.029-1.515,0-.8-.029-1.382h.387c.055,0,.16,0,.316-.007s.291-.007.4-.007a1.271,1.271,0,0,1,.714.191A.647.647,0,0,1,1136.872,444.1Zm-.574.122q0-.476-.632-.476a1.794,1.794,0,0,0-.334.033q.024.421.024.952c.037,0,.08,0,.129,0Q1136.3,444.736,1136.3,444.222Z" transform="translate(-1110.436 -443.275)" fill="#001c1d"/>
      <path id="Path_4490" data-name="Path 4490" d="M1149.755,444.1a.867.867,0,0,1-.395.785,1.757,1.757,0,0,1-.969.254c-.07,0-.119,0-.149,0q0,.418.025,1.1h-.625q.029-.643.029-1.515,0-.8-.029-1.382h.387q.082,0,.316-.007t.4-.007a1.271,1.271,0,0,1,.714.191A.646.646,0,0,1,1149.755,444.1Zm-.574.122q0-.476-.632-.476a1.793,1.793,0,0,0-.334.033q.025.421.025.952c.037,0,.08,0,.129,0Q1149.181,444.736,1149.181,444.222Z" transform="translate(-1120.651 -443.275)" fill="#001c1d"/>
      <path id="Path_4491" data-name="Path 4491" d="M1168.068,444.532a1.6,1.6,0,0,1-.418,1.132,1.356,1.356,0,0,1-1.035.449,1.308,1.308,0,0,1-.984-.413,1.454,1.454,0,0,1-.4-1.049,1.6,1.6,0,0,1,.418-1.133,1.357,1.357,0,0,1,1.035-.449,1.31,1.31,0,0,1,.983.412A1.453,1.453,0,0,1,1168.068,444.532Zm-.614.064a1.148,1.148,0,0,0-.238-.754.733.733,0,0,0-.587-.289.678.678,0,0,0-.552.291,1.162,1.162,0,0,0-.227.737,1.147,1.147,0,0,0,.239.753.733.733,0,0,0,.586.29.678.678,0,0,0,.552-.293A1.163,1.163,0,0,0,1167.454,444.6Z" transform="translate(-1134.601 -443.07)" fill="#001c1d"/>
      <path id="Path_4492" data-name="Path 4492" d="M1184.332,446.289h-.549a5.43,5.43,0,0,0-.612-.963,5.3,5.3,0,0,1-.73-1.257h-.036a7.883,7.883,0,0,1,.055.881q0,.549.031,1.339h-.547q.033-.689.033-1.515t-.033-1.382h.661a4.188,4.188,0,0,0,.55.941,5.53,5.53,0,0,1,.672,1.186h.033a8.4,8.4,0,0,1-.053-.89q0-.6-.031-1.237h.556q-.031.552-.031,1.382T1184.332,446.289Z" transform="translate(-1147.85 -443.325)" fill="#001c1d"/>
    </g>
  </g>
</svg>
