<svg id="instagram-sketched" xmlns="http://www.w3.org/2000/svg" width="25.13" height="25.13" viewBox="0 0 25.13 25.13">
  <path id="Path_66665" data-name="Path 66665" d="M211.81,209.405a2.405,2.405,0,1,1-2.4-2.405A2.4,2.4,0,0,1,211.81,209.405Zm0,0" transform="translate(-196.84 -196.84)" fill="#023047"/>
  <path id="Path_66666" data-name="Path 66666" d="M147.024,137.148a2.389,2.389,0,0,0-1.369-1.369,3.992,3.992,0,0,0-1.34-.248c-.761-.035-.989-.042-2.916-.042s-2.155.007-2.916.042a3.994,3.994,0,0,0-1.34.248,2.39,2.39,0,0,0-1.369,1.369,3.993,3.993,0,0,0-.248,1.34c-.035.761-.042.989-.042,2.916s.007,2.155.042,2.916a3.992,3.992,0,0,0,.248,1.34,2.389,2.389,0,0,0,1.369,1.369,3.987,3.987,0,0,0,1.34.248c.761.035.989.042,2.915.042s2.155-.007,2.916-.042a3.987,3.987,0,0,0,1.34-.248,2.389,2.389,0,0,0,1.369-1.369,4,4,0,0,0,.249-1.34c.035-.761.042-.989.042-2.916s-.007-2.155-.042-2.916A3.986,3.986,0,0,0,147.024,137.148Zm-5.624,7.96a3.7,3.7,0,1,1,3.7-3.7A3.7,3.7,0,0,1,141.4,145.109Zm3.851-6.691a.866.866,0,1,1,.866-.866A.866.866,0,0,1,145.251,138.418Zm0,0" transform="translate(-128.835 -128.839)" fill="#023047"/>
  <path id="Path_66667" data-name="Path 66667" d="M12.565,0A12.565,12.565,0,1,0,25.13,12.565,12.566,12.566,0,0,0,12.565,0Zm7.172,15.54a5.294,5.294,0,0,1-.335,1.751,3.689,3.689,0,0,1-2.11,2.11,5.3,5.3,0,0,1-1.751.335c-.769.035-1.015.044-2.975.044s-2.205-.008-2.975-.044A5.3,5.3,0,0,1,7.839,19.4a3.689,3.689,0,0,1-2.11-2.11,5.292,5.292,0,0,1-.335-1.751c-.035-.77-.044-1.015-.044-2.975s.008-2.205.044-2.975a5.294,5.294,0,0,1,.335-1.751,3.692,3.692,0,0,1,2.11-2.11A5.3,5.3,0,0,1,9.59,5.393c.769-.035,1.015-.044,2.975-.044s2.205.008,2.975.044a5.3,5.3,0,0,1,1.751.335,3.69,3.69,0,0,1,2.11,2.11,5.293,5.293,0,0,1,.336,1.751c.035.769.043,1.015.043,2.975S19.772,14.77,19.737,15.54Zm0,0" fill="#023047"/>
</svg>
