<svg xmlns="http://www.w3.org/2000/svg" width="25.128" height="25.128" viewBox="0 0 25.128 25.128">
  <path id="linkedin" d="M12.564,0A12.564,12.564,0,1,0,25.128,12.564,12.566,12.566,0,0,0,12.564,0ZM8.913,18.994H5.853V9.788h3.06ZM7.383,8.53h-.02A1.595,1.595,0,1,1,7.4,5.35a1.6,1.6,0,1,1-.02,3.181ZM19.947,18.994h-3.06V14.069c0-1.238-.443-2.082-1.55-2.082a1.675,1.675,0,0,0-1.57,1.119,2.1,2.1,0,0,0-.1.747v5.141h-3.06s.04-8.342,0-9.206h3.06v1.3a3.038,3.038,0,0,1,2.758-1.52c2.013,0,3.523,1.316,3.523,4.143Zm0,0" fill="current"/>
</svg>
