<svg id="mastercard" xmlns="http://www.w3.org/2000/svg" width="64.591" height="38.755" viewBox="0 0 64.591 38.755">
  <path id="Path_71648" data-name="Path 71648" d="M32.3,134.531A19.378,19.378,0,0,0,19.377,100.8a19.326,19.326,0,1,0,0,38.652A18.764,18.764,0,0,0,32.3,134.531Z" transform="translate(0 -100.8)" fill="#07a9e2"/>
  <path id="Path_71649" data-name="Path 71649" d="M0,120.177a19.34,19.34,0,0,0,19.377,19.275A18.665,18.665,0,0,0,32.3,134.428h0A19.326,19.326,0,0,0,19.377,100.8" transform="translate(0 -100.8)" fill="#009ddd"/>
  <path id="Path_71650" data-name="Path 71650" d="M90.186,105.824A19.34,19.34,0,0,0,77.268,100.8h-.923a23.822,23.822,0,0,0-.1,38.652h.923a18.665,18.665,0,0,0,12.918-5.024,19.374,19.374,0,0,0,.1-28.6Z" transform="translate(-57.89 -100.8)" fill="#0284cc"/>
  <path id="Path_71651" data-name="Path 71651" d="M224.567,100.8a19.107,19.107,0,0,0-13.021,5.024,18.425,18.425,0,0,0-1.948,2.051h3.9a14.652,14.652,0,0,1,1.435,2.051h-6.869a20.348,20.348,0,0,0-1.128,2.05h9.125a17.1,17.1,0,0,1,.82,2.051H206.215c-.205.718-.41,1.333-.615,2.051h11.893a17.96,17.96,0,0,1,.41,4.1,17.619,17.619,0,0,1-1.025,6.152H206.215a17.1,17.1,0,0,0,.82,2.051h9.125a13.136,13.136,0,0,1-1.128,2.05h-6.869a14.656,14.656,0,0,0,1.435,2.051h3.9a18.426,18.426,0,0,1-1.948,2.051,19.6,19.6,0,0,0,13.021,5.024,19.378,19.378,0,0,0,0-38.755Z" transform="translate(-179.251 -100.8)" fill="#ff2957"/>
  <path id="Path_71652" data-name="Path 71652" d="M224.567,100.8h0a19.107,19.107,0,0,0-13.021,5.024,18.425,18.425,0,0,0-1.948,2.051h3.9a14.652,14.652,0,0,1,1.435,2.051h-6.869a20.348,20.348,0,0,0-1.128,2.05h9.125a17.1,17.1,0,0,1,.82,2.051H206.215c-.205.718-.41,1.333-.615,2.051h11.893a17.96,17.96,0,0,1,.41,4.1,17.619,17.619,0,0,1-1.025,6.152H206.215a17.1,17.1,0,0,0,.82,2.051h9.125a13.136,13.136,0,0,1-1.128,2.05h-6.869a14.656,14.656,0,0,0,1.435,2.051h3.9a18.426,18.426,0,0,1-1.948,2.051,19.6,19.6,0,0,0,13.021,5.024,19.252,19.252,0,0,0,19.275-19.275" transform="translate(-179.251 -100.8)" fill="#ed1c2e"/>
  <path id="Path_71653" data-name="Path 71653" d="M252,168.707A19.384,19.384,0,0,0,252,140v28.707Z" transform="translate(-219.704 -134.976)" fill="#0466b5"/>
  <path id="Path_71654" data-name="Path 71654" d="M452,280.615a.615.615,0,1,1,.615.615.661.661,0,0,1-.615-.615Zm.615.513c.308,0,.41-.205.41-.513a.376.376,0,0,0-.41-.41.469.469,0,0,0-.513.41.658.658,0,0,0,.513.513Zm0-.308h-.1v-.513h.308l.1.1c0,.1,0,.1-.1.1l.1.205h-.1l-.1-.205h-.1v.308Zm0-.308h.1v-.1h-.1v.1Z" transform="translate(-394.073 -257.034)" fill="#fff"/>
  <path id="Path_71655" data-name="Path 71655" d="M211.546,107.118a18.423,18.423,0,0,0-1.948,2.051h3.9a14.652,14.652,0,0,1,1.435,2.051h-6.869a20.348,20.348,0,0,0-1.128,2.05h9.125a17.1,17.1,0,0,1,.82,2.051H206.215c-.205.718-.41,1.333-.615,2.051h11.893a17.96,17.96,0,0,1,.41,4.1,17.619,17.619,0,0,1-1.025,6.152H206.215a17.1,17.1,0,0,0,.82,2.05h9.125a13.138,13.138,0,0,1-1.128,2.051h-6.869a14.653,14.653,0,0,0,1.435,2.05h3.9a18.424,18.424,0,0,1-1.948,2.051,19.6,19.6,0,0,0,13.021,5.024h.923a23.794,23.794,0,0,0,0-38.55h-.923A18.468,18.468,0,0,0,211.546,107.118Z" transform="translate(-179.251 -102.095)" fill="#d1094b"/>
  <path id="Path_71656" data-name="Path 71656" d="M60.858,222.642H58.4l1.435-7.484-3.281,7.484H54.4l-.41-7.484-1.435,7.484H50.4l1.845-9.842h3.793l.205,6.152L58.91,212.8h3.9Z" transform="translate(-43.941 -198.446)" fill="#fff"/>
  <g id="Group_13258" data-name="Group 13258" transform="translate(14.456 14.456)">
    <path id="Path_71657" data-name="Path 71657" d="M112.9,219.034l1.435-3.178L113.21,221.8a9.6,9.6,0,0,0,.41,1.64h1.64l1.845-9.842h-3.588a19.808,19.808,0,0,0-.718,5.024C112.9,218.726,112.9,218.829,112.9,219.034Z" transform="translate(-112.8 -213.6)" fill="#dce5e5"/>
    <path id="Path_71658" data-name="Path 71658" d="M317.188,223.237a5.687,5.687,0,0,1-1.743.308c-1.23,0-1.845-.615-1.845-1.743a2,2,0,0,1,.1-.718l.1-.82.1-.615,1.128-6.049h2.358l-.308,1.845h1.23l-.308,1.845h-1.23l-.615,3.281a1.033,1.033,0,0,1-.1.308c0,.41.308.615.82.615.308,0,.513,0,.615-.1l-.308,1.845Z" transform="translate(-287.866 -213.6)" fill="#dce5e5"/>
    <path id="Path_71659" data-name="Path 71659" d="M354.254,226.605c-.205-.1-.205-.1-.308-.1s-.205,0-.205-.1h-.308c-.82,0-1.333.308-2.051,1.333l.205-1.23h-2.153l-1.435,8h2.461c.82-4.921,1.23-5.741,2.358-5.741h.308l.308.1.82-2.256Z" transform="translate(-317.857 -224.76)" fill="#dce5e5"/>
    <path id="Path_71660" data-name="Path 71660" d="M260.923,229.066q0,1.538,1.845,2.153c1.025.41,1.128.513,1.128.923,0,.513-.41.718-1.435.718a7.8,7.8,0,0,1-2.153-.308L260,234.4h.1l.41.1h.615a7.357,7.357,0,0,0,1.333.1c2.563,0,3.793-.82,3.793-2.666,0-1.128-.513-1.743-1.743-2.256-1.025-.41-1.128-.513-1.128-.82q0-.615,1.23-.615a11.174,11.174,0,0,1,1.743.1l.308-1.845a15.145,15.145,0,0,0-2.153-.1c-2.666,0-3.588,1.23-3.588,2.666Z" transform="translate(-241.135 -224.76)" fill="#dce5e5"/>
    <path id="Path_71661" data-name="Path 71661" d="M147.464,233.8h-1.948v-.82a3.412,3.412,0,0,1-2.563.923,2.045,2.045,0,0,1-2.153-2.153c0-1.948,1.538-3.076,4.2-3.076h1.025a1.372,1.372,0,0,0,.1-.513c0-.513-.41-.718-1.538-.718a10.33,10.33,0,0,0-1.948.205l-.308.1h-.205l.308-1.743a10.7,10.7,0,0,1,2.871-.41c2.051,0,3.178.82,3.178,2.358a6.159,6.159,0,0,1-.205,1.64l-.513,2.871-.1.513-.1.41v.308l-.1.1Zm-1.743-3.588h-.513c-1.333,0-2.05.41-2.05,1.23a.755.755,0,0,0,.82.82,1.82,1.82,0,0,0,1.743-2.051Z" transform="translate(-137.212 -224.062)" fill="#dce5e5"/>
    <path id="Path_71662" data-name="Path 71662" d="M209.762,233.6a10.112,10.112,0,0,1-2.461.308c-2.666,0-4.1-1.23-4.1-3.588,0-2.768,1.743-4.716,4.2-4.716,1.948,0,3.178,1.128,3.178,2.871a7.574,7.574,0,0,1-.308,1.948h-4.819v.308c0,.923.718,1.435,2.05,1.435a5.065,5.065,0,0,0,2.461-.513l-.205,1.948Zm-1.23-4.716v-.41a1,1,0,0,0-1.128-1.025,1.623,1.623,0,0,0-1.538,1.435Z" transform="translate(-191.615 -224.062)" fill="#dce5e5"/>
  </g>
  <g id="Group_13259" data-name="Group 13259" transform="translate(49.827 15.994)">
    <path id="Path_71663" data-name="Path 71663" d="M397.31,230.214c-.41,2.666-2.256,3.793-4.716,3.793a3.421,3.421,0,0,1-3.793-3.691,4.466,4.466,0,0,1,4.716-4.716,3.5,3.5,0,0,1,3.794,3.588v1.025Zm-2.563-1.025c0-.82-.308-1.538-1.333-1.538-1.23,0-1.948,1.435-1.948,2.768,0,1.025.513,1.743,1.333,1.743a2.377,2.377,0,0,0,1.846-1.948,3.849,3.849,0,0,0,.1-1.025Z" transform="translate(-388.8 -225.6)" fill="#fff"/>
    <path id="Path_71664" data-name="Path 71664" d="M389.077,252.861a16.773,16.773,0,0,0,.205-2.256V250.4a7.967,7.967,0,0,0-.205,1.64A1.123,1.123,0,0,0,389.077,252.861Z" transform="translate(-388.974 -247.222)" fill="#fff"/>
  </g>
</svg>
