<svg id="mastercard_1_" data-name="mastercard (1)" xmlns="http://www.w3.org/2000/svg" width="64.591" height="38.755" viewBox="0 0 64.591 38.755">
  <path id="Path_71622" data-name="Path 71622" d="M240.355,120.177a19.377,19.377,0,0,1-38.755,0h0a19.377,19.377,0,1,1,38.755,0Z" transform="translate(-175.764 -100.8)" fill="#ffb600"/>
  <path id="Path_71623" data-name="Path 71623" d="M220.977,100.8a19.428,19.428,0,0,1,19.377,19.377h0a19.377,19.377,0,0,1-38.755,0" transform="translate(-175.764 -100.8)" fill="#f7981d"/>
  <path id="Path_71624" data-name="Path 71624" d="M352.8,100.8a19.428,19.428,0,0,1,19.377,19.377h0A19.362,19.362,0,0,1,352.8,139.555" transform="translate(-307.586 -100.8)" fill="#ff8500"/>
  <path id="Path_71625" data-name="Path 71625" d="M19.172,100.8a19.378,19.378,0,0,0,.205,38.755A19.6,19.6,0,0,0,32.4,134.531h0a18.423,18.423,0,0,0,1.948-2.051h-4a23.65,23.65,0,0,1-1.435-1.948h6.869a13.135,13.135,0,0,0,1.128-2.05H27.784a12.22,12.22,0,0,1-.82-2.051H37.627a20.358,20.358,0,0,0,1.025-6.152,26.464,26.464,0,0,0-.41-4.1H26.349a14.99,14.99,0,0,1,.513-2.05H37.524a12.219,12.219,0,0,0-.82-2.051H27.682a20.33,20.33,0,0,1,1.128-2.051h6.869a9.75,9.75,0,0,0-1.538-2.051H30.348a17.476,17.476,0,0,1,1.948-1.948,18.919,18.919,0,0,0-13.021-5.024C19.275,100.8,19.275,100.8,19.172,100.8Z" transform="translate(0 -100.8)" fill="#ff5050"/>
  <path id="Path_71626" data-name="Path 71626" d="M0,121.572A19.362,19.362,0,0,0,19.377,140.95,19.6,19.6,0,0,0,32.4,135.926h0a18.42,18.42,0,0,0,1.948-2.051h-4a23.653,23.653,0,0,1-1.435-1.948h6.869a13.134,13.134,0,0,0,1.128-2.05H27.784a12.22,12.22,0,0,1-.82-2.051H37.627a20.358,20.358,0,0,0,1.025-6.152,26.464,26.464,0,0,0-.41-4.1H26.349a14.989,14.989,0,0,1,.513-2.05H37.524a12.22,12.22,0,0,0-.82-2.051H27.682a20.332,20.332,0,0,1,1.128-2.051h6.869a9.75,9.75,0,0,0-1.538-2.051H30.348a17.476,17.476,0,0,1,1.948-1.948A18.919,18.919,0,0,0,19.275,102.4h-.1" transform="translate(0 -102.195)" fill="#e52836"/>
  <path id="Path_71627" data-name="Path 71627" d="M149.805,140.95a19.6,19.6,0,0,0,13.021-5.024h0a18.421,18.421,0,0,0,1.948-2.051h-4a23.657,23.657,0,0,1-1.435-1.948h6.869a13.131,13.131,0,0,0,1.128-2.05h-9.125a12.218,12.218,0,0,1-.82-2.051h10.663a20.358,20.358,0,0,0,1.025-6.152,26.465,26.465,0,0,0-.41-4.1H156.777a15,15,0,0,1,.513-2.05h10.663a12.221,12.221,0,0,0-.82-2.051H158.11a20.327,20.327,0,0,1,1.128-2.051h6.869a9.75,9.75,0,0,0-1.538-2.051h-3.793a17.48,17.48,0,0,1,1.948-1.948A18.919,18.919,0,0,0,149.7,102.4h-.1" transform="translate(-130.428 -102.195)" fill="#cb2026"/>
  <g id="Group_13256" data-name="Group 13256" transform="translate(1.845 14.354)">
    <path id="Path_71628" data-name="Path 71628" d="M184.573,229.022l.308-1.743a4.44,4.44,0,0,1-.513.1c-.718,0-.82-.41-.718-.615l.615-3.588h1.128l.308-1.948h-1.025l.205-1.23H182.83s-1.23,6.767-1.23,7.587a1.539,1.539,0,0,0,1.64,1.743A3.147,3.147,0,0,0,184.573,229.022Z" transform="translate(-160.172 -219.077)" fill="#fff"/>
    <path id="Path_71629" data-name="Path 71629" d="M210.4,233.325a3.261,3.261,0,0,0,3.588,3.588,5.323,5.323,0,0,0,2.153-.308l.41-1.948a6.146,6.146,0,0,1-2.153.513c-2.256,0-1.845-1.64-1.845-1.64h4.2a13.292,13.292,0,0,0,.308-1.845,2.778,2.778,0,0,0-2.973-2.973C211.938,228.507,210.4,230.762,210.4,233.325Zm3.588-2.973c1.128,0,.923,1.333.923,1.435h-2.256C212.656,231.685,212.861,230.352,213.988,230.352Z" transform="translate(-185.281 -226.661)" fill="#fff"/>
    <path id="Path_71630" data-name="Path 71630" d="M301.639,222.745l.41-2.256a5.039,5.039,0,0,1-1.743.513c-1.435,0-2.05-1.128-2.05-2.358,0-2.461,1.23-3.793,2.666-3.793a3.424,3.424,0,0,1,1.845.615l.308-2.153a7.208,7.208,0,0,0-2.358-.513c-2.358,0-4.716,2.05-4.716,5.946,0,2.563,1.23,4.306,3.691,4.306A9.2,9.2,0,0,0,301.639,222.745Z" transform="translate(-259.911 -212.8)" fill="#fff"/>
    <path id="Path_71631" data-name="Path 71631" d="M90.3,227.2a7.261,7.261,0,0,0-2.461.41l-.308,1.743a6.06,6.06,0,0,1,2.256-.41c.718,0,1.333.1,1.333.718,0,.41-.1.513-.1.513h-.923c-1.743,0-3.691.718-3.691,3.076,0,1.845,1.23,2.256,1.948,2.256a3.08,3.08,0,0,0,2.153-.923l-.1.82h1.845l.82-5.639A2.43,2.43,0,0,0,90.3,227.2Zm.41,4.614c0,.308-.205,1.948-1.435,1.948a.8.8,0,0,1-.82-.82c0-.513.308-1.23,1.845-1.23A1.617,1.617,0,0,0,90.706,231.814Z" transform="translate(-77.173 -225.354)" fill="#fff"/>
    <path id="Path_71632" data-name="Path 71632" d="M137.558,234.807c.513,0,3.076.1,3.076-2.666,0-2.563-2.461-2.051-2.461-3.076,0-.513.41-.718,1.128-.718.308,0,1.435.1,1.435.1l.308-1.845a7.789,7.789,0,0,0-1.948-.205c-1.538,0-3.076.615-3.076,2.666,0,2.358,2.563,2.153,2.563,3.076,0,.615-.718.718-1.23.718a6.7,6.7,0,0,1-1.845-.308L135.2,234.4C135.3,234.6,135.815,234.807,137.558,234.807Z" transform="translate(-119.719 -224.657)" fill="#fff"/>
    <path id="Path_71633" data-name="Path 71633" d="M433.044,214.4l-.41,2.768a2.843,2.843,0,0,0-1.948-1.025c-1.845,0-3.486,2.256-3.486,4.921,0,1.64.82,3.383,2.563,3.383a2.737,2.737,0,0,0,1.948-.82l-.1.718h2.05L435.2,214.5Zm-.923,5.434c0,1.128-.513,2.563-1.64,2.563-.718,0-1.128-.615-1.128-1.64,0-1.64.718-2.666,1.64-2.666C431.711,218.091,432.121,218.6,432.121,219.834Z" transform="translate(-374.297 -214.195)" fill="#fff"/>
    <path id="Path_71634" data-name="Path 71634" d="M16.348,224.242l1.23-7.382.205,7.382h1.435l2.666-7.382-1.128,7.382H22.91l1.64-9.842H21.167l-2.051,6.049-.1-6.049H16.04l-1.64,9.842Z" transform="translate(-14.4 -214.195)" fill="#fff"/>
    <path id="Path_71635" data-name="Path 71635" d="M262.256,236.8c.615-3.383.718-6.152,2.153-5.639a8.045,8.045,0,0,1,.718-2.358h-.41c-.923,0-1.64,1.23-1.64,1.23l.205-1.128h-1.948l-1.333,8h2.256Z" transform="translate(-228.525 -226.749)" fill="#fff"/>
    <path id="Path_71636" data-name="Path 71636" d="M350.3,227.2a7.261,7.261,0,0,0-2.461.41l-.308,1.743a6.06,6.06,0,0,1,2.256-.41c.718,0,1.333.1,1.333.718,0,.41-.1.513-.1.513h-.923c-1.743,0-3.691.718-3.691,3.076,0,1.845,1.23,2.256,1.948,2.256a3.08,3.08,0,0,0,2.153-.923l-.1.82h1.845l.82-5.639C353.167,227.3,351.014,227.2,350.3,227.2Zm.513,4.614c0,.308-.205,1.948-1.435,1.948a.8.8,0,0,1-.82-.82c0-.513.308-1.23,1.845-1.23C350.706,231.814,350.706,231.814,350.809,231.814Z" transform="translate(-303.852 -225.354)" fill="#fff"/>
    <path id="Path_71637" data-name="Path 71637" d="M396.656,236.8c.615-3.383.718-6.152,2.153-5.639a8.047,8.047,0,0,1,.718-2.358h-.41c-.923,0-1.64,1.23-1.64,1.23l.205-1.128h-1.948l-1.333,8h2.256Z" transform="translate(-345.7 -226.749)" fill="#fff"/>
  </g>
  <g id="Group_13257" data-name="Group 13257" transform="translate(1.845 14.354)">
    <path id="Path_71638" data-name="Path 71638" d="M180,227.587a1.539,1.539,0,0,0,1.64,1.743,3.9,3.9,0,0,0,1.538-.308l.308-1.743a4.441,4.441,0,0,1-.513.1c-.718,0-.82-.41-.718-.615l.615-3.588H184l.308-1.948h-1.025l.205-1.23" transform="translate(-158.777 -219.077)" fill="#dce5e5"/>
    <path id="Path_71639" data-name="Path 71639" d="M218.4,233.325c0,2.871.923,3.588,2.563,3.588a5.323,5.323,0,0,0,2.153-.308l.41-1.948a6.147,6.147,0,0,1-2.153.513c-2.256,0-1.845-1.64-1.845-1.64h4.2a13.292,13.292,0,0,0,.308-1.845,2.778,2.778,0,0,0-2.973-2.973C218.913,228.507,218.4,230.762,218.4,233.325Zm2.563-2.973c1.128,0,1.333,1.333,1.333,1.435H219.63C219.63,231.685,219.835,230.352,220.963,230.352Z" transform="translate(-192.256 -226.661)" fill="#dce5e5"/>
    <path id="Path_71640" data-name="Path 71640" d="M308.614,222.745l.41-2.256a5.039,5.039,0,0,1-1.743.513c-1.435,0-2.051-1.128-2.051-2.358,0-2.461,1.23-3.793,2.666-3.793a3.424,3.424,0,0,1,1.845.615l.308-2.153a7.209,7.209,0,0,0-2.358-.513c-2.358,0-3.691,2.05-3.691,5.946,0,2.563.205,4.306,2.666,4.306A9.2,9.2,0,0,0,308.614,222.745Z" transform="translate(-266.886 -212.8)" fill="#dce5e5"/>
    <path id="Path_71641" data-name="Path 71641" d="M87.528,230.85a6.06,6.06,0,0,1,2.256-.41c.718,0,1.333.1,1.333.718,0,.41-.1.513-.1.513h-.923c-1.743,0-3.691.718-3.691,3.076,0,1.845,1.23,2.256,1.948,2.256a3.081,3.081,0,0,0,2.153-.923l-.1.82h1.845l.82-5.639c0-2.358-2.05-2.461-2.871-2.461m1.538,4.409a3.357,3.357,0,0,1-2.461,1.948.8.8,0,0,1-.82-.82c0-.513.308-1.23,1.845-1.23A8.378,8.378,0,0,0,91.731,233.209Z" transform="translate(-77.173 -226.749)" fill="#dce5e5"/>
    <path id="Path_71642" data-name="Path 71642" d="M136,234.6a8.676,8.676,0,0,0,2.358.205c.513,0,3.076.1,3.076-2.666,0-2.563-2.461-2.051-2.461-3.076,0-.513.41-.718,1.128-.718.308,0,1.435.1,1.435.1l.308-1.845a7.789,7.789,0,0,0-1.948-.205c-1.538,0-2.051.615-2.051,2.666,0,2.358,1.538,2.153,1.538,3.076,0,.615-.718.718-1.23.718" transform="translate(-120.416 -224.657)" fill="#dce5e5"/>
    <path id="Path_71643" data-name="Path 71643" d="M439.558,217.866a2.843,2.843,0,0,0-1.948-1.025c-1.845,0-2.461,2.256-2.461,4.921,0,1.64-.205,3.383,1.538,3.383a2.737,2.737,0,0,0,1.948-.82l-.1.718h2.051l1.538-9.842m-2.666,5.331c0,1.128-.923,2.563-2.051,2.563-.718,0-1.128-.615-1.128-1.64,0-1.64.718-2.666,1.64-2.666A1.567,1.567,0,0,1,439.455,220.531Z" transform="translate(-381.221 -214.892)" fill="#dce5e5"/>
    <path id="Path_71644" data-name="Path 71644" d="M16.348,224.242l1.23-7.382.205,7.382h1.435l2.666-7.382-1.128,7.382H22.91l1.64-9.842H21.987l-2.871,6.049-.1-6.049H17.886L14.4,224.242Z" transform="translate(-14.4 -214.195)" fill="#dce5e5"/>
    <path id="Path_71645" data-name="Path 71645" d="M260.8,236.8h2.153c.615-3.383.718-6.152,2.153-5.639a8.047,8.047,0,0,1,.718-2.358h-.41c-.923,0-1.64,1.23-1.64,1.23l.205-1.128" transform="translate(-229.222 -226.749)" fill="#dce5e5"/>
    <path id="Path_71646" data-name="Path 71646" d="M347.528,230.85a6.06,6.06,0,0,1,2.256-.41c.718,0,1.333.1,1.333.718,0,.41-.1.513-.1.513h-.923c-1.743,0-3.691.718-3.691,3.076,0,1.845,1.23,2.256,1.948,2.256a3.08,3.08,0,0,0,2.153-.923l-.1.82h1.845l.82-5.639c0-2.358-2.051-2.461-2.871-2.461m1.538,4.409a3.357,3.357,0,0,1-2.461,1.948.8.8,0,0,1-.82-.82c0-.513.308-1.23,1.845-1.23A9.021,9.021,0,0,0,351.731,233.209Z" transform="translate(-303.852 -226.749)" fill="#dce5e5"/>
    <path id="Path_71647" data-name="Path 71647" d="M395.2,236.8h2.153c.615-3.383.718-6.152,2.153-5.639a8.049,8.049,0,0,1,.718-2.358h-.41c-.923,0-1.64,1.23-1.64,1.23l.205-1.128" transform="translate(-346.398 -226.749)" fill="#dce5e5"/>
  </g>
</svg>
