<svg xmlns="http://www.w3.org/2000/svg" width="20.85" height="13.736" viewBox="0 0 20.85 13.736">
  <path id="traffic" d="M20.706,71.43a.424.424,0,0,0-.372-.257H18.429a.424.424,0,0,0-.372.257,3.085,3.085,0,0,0-.109.386l-1.273-3.521a1.475,1.475,0,0,0-1.383-.971H5.559a1.475,1.475,0,0,0-1.383.971L2.9,71.816a3.094,3.094,0,0,0-.109-.386.424.424,0,0,0-.372-.257H.517a.424.424,0,0,0-.372.257,1.877,1.877,0,0,0,0,1.445.424.424,0,0,0,.372.256H2.428l-.029.08a.977.977,0,0,0-.669.927v6.454a.469.469,0,0,0,.47.47H4.563a.469.469,0,0,0,.47-.47V78.305H15.819v2.286a.469.469,0,0,0,.47.47h2.363a.469.469,0,0,0,.47-.47V74.137a.977.977,0,0,0-.669-.927l-.029-.08h1.91a.424.424,0,0,0,.372-.257A1.877,1.877,0,0,0,20.706,71.43ZM5.739,69.052h9.372L16.6,73.16H4.254Zm.261,7H4.024a.768.768,0,1,1,0-1.536H6a.768.768,0,1,1,0,1.536Zm10.828,0H14.851a.768.768,0,1,1,0-1.536h1.977a.768.768,0,1,1,0,1.536Z" transform="translate(-0.001 -67.324)" fill="#023047" stroke="#000" stroke-linecap="round" stroke-linejoin="round" stroke-width="0"/>
</svg>
