<svg xmlns="http://www.w3.org/2000/svg" width="25.13" height="25.13" viewBox="0 0 25.13 25.13">
  <path id="twitter" d="M12.565,0A12.565,12.565,0,1,0,25.13,12.565,12.566,12.566,0,0,0,12.565,0ZM18.3,9.8q.008.185.008.373A8.15,8.15,0,0,1,10.1,18.375h0a8.163,8.163,0,0,1-4.421-1.3,5.866,5.866,0,0,0,.688.04,5.787,5.787,0,0,0,3.582-1.235,2.887,2.887,0,0,1-2.694-2,2.874,2.874,0,0,0,1.3-.049,2.885,2.885,0,0,1-2.314-2.827c0-.013,0-.025,0-.037a2.864,2.864,0,0,0,1.306.361,2.886,2.886,0,0,1-.893-3.85,8.188,8.188,0,0,0,5.945,3.013,2.886,2.886,0,0,1,4.915-2.63,5.785,5.785,0,0,0,1.831-.7,2.9,2.9,0,0,1-1.268,1.6A5.752,5.752,0,0,0,19.741,8.3,5.861,5.861,0,0,1,18.3,9.8Zm0,0" fill="#0081a7"/>
</svg>
