<svg id="visa" xmlns="http://www.w3.org/2000/svg" width="68.164" height="20.665" viewBox="0 0 68.164 20.665">
  <path id="Path_71665" data-name="Path 71665" d="M184.8,199.875l3.462-19.475h5.41l-3.354,19.475Z" transform="translate(-159.807 -179.751)" fill="#3c58bf"/>
  <path id="Path_71666" data-name="Path 71666" d="M184.8,199.875l4.436-19.475h4.436l-3.354,19.475Z" transform="translate(-159.807 -179.751)" fill="#293688"/>
  <path id="Path_71667" data-name="Path 71667" d="M264.554,176.466a13.724,13.724,0,0,0-4.977-.866c-5.41,0-9.3,2.7-9.3,6.6,0,2.921,2.7,4.436,4.869,5.41s2.813,1.623,2.813,2.489c0,1.3-1.731,1.948-3.246,1.948a11.76,11.76,0,0,1-5.193-1.082l-.757-.325L248,195.075a17.543,17.543,0,0,0,6.167,1.082c5.734,0,9.521-2.7,9.521-6.816,0-2.272-1.407-4-4.652-5.41-1.948-.974-3.138-1.515-3.138-2.488,0-.866.974-1.731,3.138-1.731a9.925,9.925,0,0,1,4.111.757l.541.216.866-4.22Z" transform="translate(-214.459 -175.6)" fill="#3c58bf"/>
  <path id="Path_71668" data-name="Path 71668" d="M264.554,176.466a13.724,13.724,0,0,0-4.977-.866c-5.41,0-8.331,2.7-8.331,6.6,0,2.921,1.731,4.436,3.9,5.41s2.813,1.623,2.813,2.489c0,1.3-1.731,1.948-3.246,1.948a11.76,11.76,0,0,1-5.193-1.082l-.757-.325L248,195.075a17.543,17.543,0,0,0,6.167,1.082c5.734,0,9.521-2.7,9.521-6.816,0-2.272-1.407-4-4.652-5.41-1.948-.974-3.138-1.515-3.138-2.488,0-.866.974-1.731,3.138-1.731a9.925,9.925,0,0,1,4.111.757l.541.216.866-4.22Z" transform="translate(-214.459 -175.6)" fill="#293688"/>
  <path id="Path_71669" data-name="Path 71669" d="M369.328,180.4c-1.3,0-2.272.108-2.813,1.407L358.4,199.875h5.843l1.082-3.246h6.925l.649,3.246h5.193L373.547,180.4Zm-2.489,12.984c.325-.974,2.164-5.734,2.164-5.734s.433-1.19.757-1.948l.325,1.839s1.082,4.869,1.3,5.951h-4.544Z" transform="translate(-309.928 -179.751)" fill="#3c58bf"/>
  <path id="Path_71670" data-name="Path 71670" d="M370.626,180.4c-1.3,0-2.272.108-2.813,1.407L358.4,199.875h5.843l1.082-3.246h6.925l.649,3.246h5.193L373.547,180.4Zm-3.787,12.984c.433-1.082,2.164-5.734,2.164-5.734s.433-1.19.757-1.948l.325,1.839s1.082,4.869,1.3,5.951h-4.544Z" transform="translate(-309.928 -179.751)" fill="#293688"/>
  <path id="Path_71671" data-name="Path 71671" d="M59.315,194.724l-.541-2.813a15.684,15.684,0,0,0-7.574-8.547l4.869,17.311h5.843L70.675,181.2H64.833Z" transform="translate(-44.275 -180.443)" fill="#3c58bf"/>
  <path id="Path_71672" data-name="Path 71672" d="M59.315,194.724l-.541-2.813a15.684,15.684,0,0,0-7.574-8.547l4.869,17.311h5.843L70.675,181.2H65.915Z" transform="translate(-44.275 -180.443)" fill="#293688"/>
  <path id="Path_71673" data-name="Path 71673" d="M0,180.4l.974.216c6.925,1.623,11.685,5.734,13.524,10.6l-1.948-9.2c-.325-1.3-1.3-1.623-2.489-1.623Z" transform="translate(0 -179.751)" fill="#ffbc00"/>
  <path id="Path_71674" data-name="Path 71674" d="M0,180.4H0c6.925,1.623,12.659,5.843,14.5,10.711l-1.839-7.682a2.641,2.641,0,0,0-2.6-2.056Z" transform="translate(0 -179.751)" fill="#f7981d"/>
  <path id="Path_71675" data-name="Path 71675" d="M0,180.4H0c6.925,1.623,12.659,5.843,14.5,10.711l-1.3-4.22c-.325-1.3-.757-2.6-2.272-3.138Z" transform="translate(0 -179.751)" fill="#ed7c00"/>
  <g id="Group_13260" data-name="Group 13260" transform="translate(7.033 2.813)">
    <path id="Path_71676" data-name="Path 71676" d="M65.416,207.22l-3.679-3.679-1.731,4.111-.433-2.7A15.684,15.684,0,0,0,52,196.4l4.869,17.311h5.843Z" transform="translate(-52 -196.4)" fill="#051244"/>
    <path id="Path_71677" data-name="Path 71677" d="M190.318,293.961l-4.652-4.761-.866,4.761Z" transform="translate(-166.839 -276.649)" fill="#051244"/>
    <path id="Path_71678" data-name="Path 71678" d="M257.413,274.8h0c.433.433.649.757.541,1.19,0,1.3-1.731,1.948-3.246,1.948a11.759,11.759,0,0,1-5.193-1.082l-.757-.325L248,280.967a17.542,17.542,0,0,0,6.167,1.082c3.462,0,6.275-.974,7.9-2.7Z" transform="translate(-221.492 -264.197)" fill="#051244"/>
    <path id="Path_71679" data-name="Path 71679" d="M364,233.774h5.085l1.082-3.246h6.925l.649,3.246h5.193l-1.839-7.9L374.6,219.6l.325,1.731s1.082,4.869,1.3,5.951h-4.544c.433-1.082,2.164-5.734,2.164-5.734s.433-1.19.757-1.948" transform="translate(-321.804 -216.462)" fill="#051244"/>
  </g>
</svg>
