<svg xmlns="http://www.w3.org/2000/svg" width="16.142" height="16.142" viewBox="0 0 16.142 16.142">
  <path id="transmission" d="M16.141,1.883a1.883,1.883,0,1,0-2.69,1.7v2.6a1.076,1.076,0,0,1-1.076,1.076h-2.6a1.89,1.89,0,0,0-.895-.895V3.585a1.883,1.883,0,1,0-1.614,0V6.369a1.89,1.89,0,0,0-.895.895H2.69V3.585a1.883,1.883,0,1,0-1.614,0v8.972a1.883,1.883,0,1,0,1.614,0V8.878H6.369a1.89,1.89,0,0,0,.895.895v2.784a1.883,1.883,0,1,0,1.614,0V9.772a1.89,1.89,0,0,0,.895-.895h2.6a2.69,2.69,0,0,0,2.69-2.69v-2.6a1.883,1.883,0,0,0,1.076-1.7Z" transform="translate(0 0)" fill="#023047"/>
</svg>
