<svg id="whatsapp" xmlns="http://www.w3.org/2000/svg" width="25.13" height="25.13" viewBox="0 0 25.13 25.13">
  <path id="Path_66668" data-name="Path 66668" d="M12.565,0A12.565,12.565,0,1,0,25.13,12.565,12.566,12.566,0,0,0,12.565,0Zm.266,19.881h0a7.517,7.517,0,0,1-3.594-.915L5.248,20.011l1.067-3.9a7.521,7.521,0,1,1,6.517,3.766Zm0,0" fill="#023047"/>
  <path id="Path_66669" data-name="Path 66669" d="M140.324,124.469a6.251,6.251,0,0,0-5.3,9.574l.149.236-.632,2.306,2.366-.62.228.135a6.24,6.24,0,0,0,3.181.871h0a6.251,6.251,0,0,0,0-12.5ZM144,133.4a1.936,1.936,0,0,1-1.268.893,2.579,2.579,0,0,1-1.184-.074,10.852,10.852,0,0,1-1.071-.4,8.376,8.376,0,0,1-3.21-2.836,3.654,3.654,0,0,1-.767-1.943,2.106,2.106,0,0,1,.658-1.567.691.691,0,0,1,.5-.235c.125,0,.251,0,.36.007s.27-.044.423.322.532,1.3.579,1.395a.346.346,0,0,1,.016.329,5.352,5.352,0,0,1-.47.642c-.083.1-.192.2-.082.383a5.663,5.663,0,0,0,1.045,1.3,5.137,5.137,0,0,0,1.511.932c.188.094.3.078.407-.047s.47-.549.595-.737.251-.157.423-.094,1.1.517,1.284.611.313.141.36.22a1.567,1.567,0,0,1-.109.893Zm0,0" transform="translate(-127.491 -118.36)" fill="#023047"/>
</svg>
