<svg id="youtube" xmlns="http://www.w3.org/2000/svg" width="25.13" height="25.13" viewBox="0 0 25.13 25.13">
  <path id="Path_66670" data-name="Path 66670" d="M224.113,212.747l4.087-2.354-4.087-2.354Zm0,0" transform="translate(-213.113 -197.828)" fill="current"/>
  <path id="Path_66671" data-name="Path 66671" d="M12.565,0A12.565,12.565,0,1,0,25.13,12.565,12.566,12.566,0,0,0,12.565,0Zm7.851,12.578a20.738,20.738,0,0,1-.323,3.777,1.967,1.967,0,0,1-1.384,1.384,47.757,47.757,0,0,1-6.144.323,46.048,46.048,0,0,1-6.144-.336,1.968,1.968,0,0,1-1.384-1.384,20.647,20.647,0,0,1-.323-3.777,20.724,20.724,0,0,1,.323-3.777,2.007,2.007,0,0,1,1.384-1.4,47.757,47.757,0,0,1,6.144-.323,45.95,45.95,0,0,1,6.144.336,1.968,1.968,0,0,1,1.384,1.384,19.68,19.68,0,0,1,.323,3.79Zm0,0" fill="current"/>
</svg>
